<?xml version="1.0" standalone="no"?>
<!DOCTYPE svg PUBLIC "-//W3C//DTD SVG 20010904//EN"
 "http://www.w3.org/TR/2001/REC-SVG-20010904/DTD/svg10.dtd">
<svg version="1.0" xmlns="http://www.w3.org/2000/svg"
 width="830.000000pt" height="830.000000pt" viewBox="0 0 830.000000 830.000000"
 preserveAspectRatio="xMidYMid meet">

<g transform="translate(0.000000,830.000000) scale(0.100000,-0.100000)"
fill="#000000" stroke="none">
<path d="M4015 7943 c-404 -14 -1028 -137 -1390 -273 -158 -59 -545 -267 -545
-292 0 -4 19 -8 43 -8 54 0 193 -30 355 -75 227 -64 384 -159 436 -264 40 -79
159 -456 374 -1186 157 -529 252 -859 252 -869 0 -14 -22 -1 -335 207 -171
112 -476 311 -680 442 -532 343 -784 511 -832 557 -84 81 -118 181 -129 379
-8 133 3 226 47 397 16 63 29 119 29 125 0 10 -24 -11 -203 -177 -204 -190
-594 -674 -749 -929 -194 -320 -387 -869 -462 -1312 -67 -402 -57 -889 24
-1208 19 -74 21 -75 45 -22 26 58 163 255 277 399 88 112 164 175 246 207 54
20 68 21 252 16 107 -4 328 -15 490 -27 385 -26 1611 -119 1630 -123 24 -5
-1837 -1240 -1890 -1255 -25 -7 -94 -13 -155 -14 -115 -1 -222 19 -335 61 -83
31 -305 161 -351 205 -81 79 -63 21 81 -259 265 -518 420 -739 765 -1094 211
-216 390 -361 642 -519 532 -332 989 -512 1528 -602 221 -37 288 -45 284 -33
-2 5 -42 43 -89 84 -112 100 -250 272 -304 379 -32 65 -48 114 -65 206 l-24
121 81 199 c264 654 752 1804 764 1804 4 0 14 -21 22 -47 58 -191 639 -1909
655 -1941 12 -23 21 -54 21 -71 0 -90 -101 -301 -200 -419 -62 -74 -295 -289
-322 -298 -86 -27 164 -33 344 -8 333 46 738 153 1023 269 195 80 528 252 715
369 124 78 245 165 350 252 529 438 828 797 1021 1224 89 197 92 218 25 160
-43 -38 -128 -77 -321 -147 -120 -44 -169 -57 -250 -65 -121 -12 -281 -6 -315
12 -42 22 -306 228 -960 749 -245 195 -522 415 -617 490 -94 75 -172 139 -172
144 -1 4 507 7 1128 7 l1128 0 69 -35 c171 -85 341 -287 423 -502 79 -206 89
-221 115 -181 20 31 92 319 110 443 37 246 44 658 16 911 -16 146 -60 390 -96
538 -40 163 -80 259 -254 606 -274 547 -393 743 -624 1020 -187 225 -426 438
-426 380 0 -5 14 -78 32 -162 25 -125 31 -176 31 -278 -1 -207 -56 -397 -136
-467 -41 -36 -189 -129 -992 -628 -871 -542 -895 -556 -895 -547 0 5 112 348
249 763 137 415 289 875 337 1024 100 304 101 305 222 383 194 124 395 190
639 209 46 3 86 9 88 13 2 4 -12 26 -32 50 -30 35 -72 60 -247 145 -303 148
-466 205 -826 285 -438 99 -689 120 -1185 103z m135 -3742 c0 -17 -18 -21 -24
-6 -3 9 0 15 9 15 8 0 15 -4 15 -9z"/>
</g>
</svg>
