<svg width="290" height="32" viewBox="0 0 290 32" fill="none" xmlns="http://www.w3.org/2000/svg">
<path d="M3.228 21V1.2H8.364C9.66 1.2 10.78 1.424 11.724 1.872C12.668 2.32 13.396 2.96 13.908 3.792C14.428 4.624 14.688 5.624 14.688 6.792C14.688 7.952 14.428 8.972 13.908 9.852C13.396 10.724 12.668 11.404 11.724 11.892C10.78 12.372 9.66 12.612 8.364 12.612H5.052V21H3.228ZM5.052 11.076H7.932C8.924 11.076 9.784 10.904 10.512 10.56C11.248 10.216 11.816 9.728 12.216 9.096C12.616 8.456 12.816 7.704 12.816 6.84C12.816 5.96 12.616 5.212 12.216 4.596C11.816 3.972 11.248 3.5 10.512 3.18C9.784 2.852 8.924 2.688 7.932 2.688H5.052V11.076ZM19.6577 21V1.2H24.7937C26.0897 1.2 27.2097 1.424 28.1537 1.872C29.0977 2.32 29.8257 2.964 30.3377 3.804C30.8577 4.636 31.1177 5.632 31.1177 6.792C31.1177 7.856 30.8977 8.796 30.4577 9.612C30.0257 10.42 29.4097 11.076 28.6097 11.58C27.8177 12.076 26.8737 12.38 25.7777 12.492L32.3657 21H30.0497L23.7377 12.66H21.4817V21H19.6577ZM21.4817 11.076H24.3617C25.3697 11.076 26.2377 10.904 26.9657 10.56C27.6937 10.216 28.2537 9.728 28.6457 9.096C29.0457 8.456 29.2457 7.704 29.2457 6.84C29.2457 5.544 28.8137 4.528 27.9497 3.792C27.0857 3.056 25.8897 2.688 24.3617 2.688H21.4817V11.076ZM34.5069 21L42.3069 1.2H43.9989L51.7869 21H49.8189L47.4069 14.688H38.8989L36.4629 21H34.5069ZM39.5109 13.08H46.7829L43.1469 3.6L39.5109 13.08ZM59.3175 21V2.856H53.2815V1.2H67.2015V2.856H61.1415V21H59.3175ZM71.7593 21V1.2H81.7313V2.808H73.5833V10.272H81.4433V11.88H73.5833V19.392H81.7313V21H71.7593ZM87.0639 21V1.2H97.0359V2.808H88.8879V10.272H96.7479V11.88H88.8879V19.392H97.0359V21H87.0639ZM102.369 21V1.2H104.193V10.272L113.073 1.2H115.377L105.777 11.004L116.385 21H113.817L104.193 12.012V21H102.369Z" fill="white"/>
<path d="M114.788 21L116.756 1.2H120.884L125.612 13.584L130.34 1.2H134.468L136.436 21H132.548L131.324 8.184L126.8 20.508H124.412L119.9 8.184L118.664 21H114.788ZM149.463 21.384C148.079 21.384 146.783 21.12 145.575 20.592C144.367 20.064 143.307 19.332 142.395 18.396C141.483 17.452 140.767 16.36 140.247 15.12C139.735 13.872 139.479 12.536 139.479 11.112C139.479 9.688 139.735 8.356 140.247 7.116C140.767 5.868 141.483 4.776 142.395 3.84C143.307 2.896 144.367 2.16 145.575 1.632C146.783 1.104 148.079 0.839999 149.463 0.839999C150.847 0.839999 152.143 1.104 153.351 1.632C154.559 2.16 155.619 2.896 156.531 3.84C157.443 4.776 158.155 5.868 158.667 7.116C159.187 8.356 159.447 9.688 159.447 11.112C159.447 12.536 159.187 13.872 158.667 15.12C158.155 16.36 157.443 17.452 156.531 18.396C155.619 19.332 154.559 20.064 153.351 20.592C152.143 21.12 150.847 21.384 149.463 21.384ZM149.451 17.64C150.299 17.64 151.075 17.48 151.779 17.16C152.483 16.84 153.095 16.388 153.615 15.804C154.135 15.22 154.539 14.532 154.827 13.74C155.115 12.94 155.259 12.064 155.259 11.112C155.259 10.16 155.115 9.288 154.827 8.496C154.539 7.696 154.135 7.004 153.615 6.42C153.095 5.836 152.483 5.384 151.779 5.064C151.075 4.744 150.299 4.584 149.451 4.584C148.619 4.584 147.847 4.744 147.135 5.064C146.431 5.384 145.819 5.836 145.299 6.42C144.779 7.004 144.375 7.696 144.087 8.496C143.807 9.288 143.667 10.16 143.667 11.112C143.667 12.064 143.807 12.94 144.087 13.74C144.375 14.532 144.779 15.22 145.299 15.804C145.819 16.388 146.431 16.84 147.135 17.16C147.847 17.48 148.619 17.64 149.451 17.64ZM163.395 21V1.2H167.283V9.372H174.687V1.2H178.563V21H174.687V12.78H167.283V21H163.395ZM181.501 21L189.457 1.2H193.069L201.013 21H196.825L195.145 16.488H187.369L185.689 21H181.501ZM188.701 13.08H193.825L191.257 6.444L188.701 13.08ZM203.942 21V1.2H210.686C211.974 1.2 213.118 1.424 214.118 1.872C215.118 2.32 215.906 2.988 216.482 3.876C217.058 4.756 217.346 5.856 217.346 7.176C217.346 8.488 217.058 9.608 216.482 10.536C215.906 11.464 215.118 12.176 214.118 12.672C213.118 13.16 211.974 13.404 210.686 13.404H207.83V21H203.942ZM207.83 10.296H209.486C210.166 10.296 210.79 10.196 211.358 9.996C211.934 9.796 212.398 9.476 212.75 9.036C213.102 8.596 213.278 8.016 213.278 7.296C213.278 6.568 213.102 5.988 212.75 5.556C212.398 5.116 211.934 4.8 211.358 4.608C210.79 4.408 210.166 4.308 209.486 4.308H207.83V10.296ZM216.916 21L224.872 1.2H228.484L236.428 21H232.24L230.56 16.488H222.784L221.104 21H216.916ZM224.116 13.08H229.24L226.672 6.444L224.116 13.08ZM240.992 21V4.632H235.976V1.2H249.896V4.632H244.868V21H240.992ZM253.044 21V1.2H259.788C261.14 1.2 262.312 1.44 263.304 1.92C264.304 2.392 265.076 3.076 265.62 3.972C266.172 4.86 266.448 5.932 266.448 7.188C266.448 8.18 266.272 9.076 265.92 9.876C265.568 10.668 265.064 11.336 264.408 11.88C263.752 12.424 262.956 12.828 262.02 13.092L268.5 21H263.568L257.856 13.536H256.932V21H253.044ZM256.932 10.296H258.588C259.396 10.296 260.08 10.18 260.64 9.948C261.2 9.716 261.628 9.376 261.924 8.928C262.228 8.472 262.38 7.928 262.38 7.296C262.38 6.336 262.048 5.6 261.384 5.088C260.728 4.568 259.796 4.308 258.588 4.308H256.932V10.296ZM268.689 21L276.645 1.2H280.257L288.201 21H284.013L282.333 16.488H274.557L272.877 21H268.689ZM275.889 13.08H281.013L278.445 6.444L275.889 13.08Z" fill="white"/>
</svg>
